<svg width="529" height="391" viewBox="0 0 529 391" fill="none" xmlns="http://www.w3.org/2000/svg">
<g clip-path="url(#clip0)">
<path d="M270.037 7.30428L127.24 84.7165C129.682 88.9238 131.255 93.5789 131.867 98.4059C132.478 103.233 132.115 108.134 130.799 112.818C129.483 117.502 127.241 121.874 124.206 125.674C121.171 129.475 117.405 132.628 113.13 134.945C108.856 137.263 104.16 138.698 99.3206 139.165C94.4817 139.633 89.5981 139.124 84.9594 137.668C80.3207 136.212 76.0211 133.839 72.3155 130.689C68.6099 127.54 65.5737 123.678 63.3867 119.333L14.6972 145.728L140.818 378.768L396.158 240.344L270.037 7.30428Z" fill="#F2F2F2"/>
<path opacity="0.2" d="M125.159 211.428L98.9411 204.418L91.9375 230.658L118.155 237.668L125.159 211.428Z" fill="#F38D04"/>
<path d="M161.709 317.021C140.752 349.186 146.494 390.097 146.494 390.097C146.494 390.097 186.214 378.857 207.171 346.691C228.128 314.525 222.386 273.615 222.386 273.615C222.386 273.615 182.666 284.855 161.709 317.021Z" fill="#3F3D56"/>
<path d="M146.383 389.723C146.383 389.723 145.872 389.642 144.933 389.451C144.185 389.299 143.153 389.082 141.894 388.783C130.638 386.127 100.711 377.148 81.1452 353.54C56.6567 323.979 57.6879 282.68 57.6879 282.68C57.6879 282.68 95.1316 288.769 119.805 315.315C120.874 316.456 121.914 317.638 122.925 318.863C144.233 344.583 146.22 379.19 146.377 387.746C146.399 389.028 146.383 389.723 146.383 389.723Z" fill="#F38D04"/>
<path d="M131.279 317.021C152.236 349.186 146.494 390.097 146.494 390.097C146.494 390.097 106.774 378.857 85.8169 346.691C64.86 314.525 70.6022 273.615 70.6022 273.615C70.6022 273.615 110.322 284.855 131.279 317.021Z" stroke="#3F3D56" stroke-width="2" stroke-miterlimit="10"/>
<path opacity="0.1" d="M146.377 387.746C145.824 388.414 145.335 388.984 144.934 389.451C144.043 390.467 143.539 391 143.539 391C143.539 391 142.925 390.228 141.894 388.783C136.233 380.885 118.024 352.802 119.43 320.362C119.506 318.662 119.631 316.979 119.805 315.315C120.874 316.456 121.914 317.639 122.925 318.863C144.233 344.583 146.22 379.19 146.377 387.746Z" fill="black"/>
<path d="M177.451 322.708C175.794 361.072 147.34 391 147.34 391C147.34 391 121.571 358.727 123.227 320.362C124.884 281.998 153.339 252.07 153.339 252.07C153.339 252.07 179.107 284.343 177.451 322.708Z" fill="#F38D04"/>
<path d="M18.1593 335.259C20.1182 335.259 21.7063 333.669 21.7063 331.709C21.7063 329.748 20.1182 328.159 18.1593 328.159C16.2003 328.159 14.6122 329.748 14.6122 331.709C14.6122 333.669 16.2003 335.259 18.1593 335.259Z" fill="#FF6584"/>
<path d="M88.4668 389.978H236.635" stroke="#3F3D56" stroke-width="2" stroke-miterlimit="10"/>
<path d="M0 389.978H70.0136" stroke="#3F3D56" stroke-width="2" stroke-miterlimit="10"/>
<path d="M35.5371 390.631V350.211" stroke="#3F3D56" stroke-width="2" stroke-miterlimit="10"/>
<path d="M35.5371 355.927C38.6913 355.927 41.2483 353.368 41.2483 350.211C41.2483 347.054 38.6913 344.495 35.5371 344.495C32.3829 344.495 29.826 347.054 29.826 350.211C29.826 353.368 32.3829 355.927 35.5371 355.927Z" fill="#3F3D56"/>
<path d="M35.5371 375.123C35.5371 375.123 34.7213 357.56 17.9957 359.601Z" fill="#3F3D56"/>
<path d="M150.204 243.138C156.285 243.138 161.215 238.204 161.215 232.118C161.215 226.031 156.285 221.097 150.204 221.097C144.122 221.097 139.192 226.031 139.192 232.118C139.192 238.204 144.122 243.138 150.204 243.138Z" fill="#3F3D56"/>
<path d="M115.667 240.133C120.09 240.133 123.676 236.544 123.676 232.118C123.676 227.691 120.09 224.102 115.667 224.102C111.244 224.102 107.659 227.691 107.659 232.118C107.659 236.544 111.244 240.133 115.667 240.133Z" stroke="#3F3D56" stroke-width="2" stroke-miterlimit="10"/>
<path d="M184.74 240.133C189.163 240.133 192.748 236.544 192.748 232.118C192.748 227.691 189.163 224.102 184.74 224.102C180.317 224.102 176.731 227.691 176.731 232.118C176.731 236.544 180.317 240.133 184.74 240.133Z" stroke="#3F3D56" stroke-width="2" stroke-miterlimit="10"/>
<path d="M268.449 16.5737C272.872 16.5737 276.457 12.9851 276.457 8.55843C276.457 4.13174 272.872 0.543198 268.449 0.543198C264.026 0.543198 260.44 4.13174 260.44 8.55843C260.44 12.9851 264.026 16.5737 268.449 16.5737Z" stroke="#3F3D56" stroke-width="2" stroke-miterlimit="10"/>
<path d="M177.413 66.5482C181.836 66.5482 185.421 62.9596 185.421 58.5329C185.421 54.1062 181.836 50.5177 177.413 50.5177C172.99 50.5177 169.404 54.1062 169.404 58.5329C169.404 62.9596 172.99 66.5482 177.413 66.5482Z" stroke="#3F3D56" stroke-width="2" stroke-miterlimit="10"/>
<path d="M355.489 96.0895C369.805 96.0895 381.411 84.4736 381.411 70.1447C381.411 55.8157 369.805 44.1998 355.489 44.1998C341.172 44.1998 329.566 55.8157 329.566 70.1447C329.566 84.4736 341.172 96.0895 355.489 96.0895Z" fill="#2F2E41"/>
<path d="M415.155 299.398L429.011 355.314L442.866 353.077L429.011 289.11L415.155 299.398Z" fill="#A0616A"/>
<path d="M433.927 351.735C433.927 351.735 426.037 354.405 427.077 356.202C428.117 357.998 428.117 369.181 424.542 373.207C420.966 377.233 412.027 389.758 422.307 390.205C432.587 390.653 442.866 383.943 442.866 383.943V372.312L444.654 383.048H446.442V370.97C446.442 370.97 450.911 363.366 448.23 358.893C445.548 354.419 443.8 350.521 440.428 350.905C437.056 351.288 433.927 351.735 433.927 351.735Z" fill="#F38D04"/>
<path d="M360.628 346.815L358.393 358.893H374.037V346.815H360.628Z" fill="#A0616A"/>
<path d="M361.969 356.209C361.969 356.209 357.5 355.761 356.159 362.024C354.818 368.287 342.751 381.579 338.281 382.921C333.812 384.263 333.812 388.736 339.622 389.63C345.432 390.525 360.181 390.972 363.757 386.052C367.333 381.131 372.249 373.207 372.249 373.207L370.014 390.078H374.037C374.037 390.078 377.612 373.654 381.188 369.628C384.763 365.603 374.037 356.209 372.249 356.209H361.969Z" fill="#F38D04"/>
<path d="M496.201 158.639C502.282 158.639 507.212 153.705 507.212 147.618C507.212 141.531 502.282 136.597 496.201 136.597C490.119 136.597 485.189 141.531 485.189 147.618C485.189 153.705 490.119 158.639 496.201 158.639Z" fill="#3F3D56"/>
<path d="M340.069 163.859C340.069 163.859 336.94 172.358 331.577 173.7C326.214 175.042 286.435 184.436 286.435 184.436C286.435 184.436 251.574 185.331 262.3 192.935C273.027 200.54 290.458 192.935 290.458 192.935C290.458 192.935 341.41 186.673 345.432 179.963C348.08 175.396 350.324 170.607 352.136 165.648L340.069 163.859Z" fill="#A0616A"/>
<path d="M357.053 126.284C357.053 126.284 331.577 167.885 334.706 168.78C337.834 169.674 366.886 179.068 368.226 175.49C369.567 171.911 369.567 155.36 369.567 155.36L357.053 126.284Z" fill="#2F2E41"/>
<path opacity="0.1" d="M357.053 126.284C357.053 126.284 331.577 167.885 334.706 168.78C337.834 169.674 366.886 179.068 368.226 175.49C369.567 171.911 369.567 155.36 369.567 155.36L357.053 126.284Z" fill="black"/>
<path d="M423.201 116.443L480.857 145.966C480.857 145.966 513.484 154.465 506.333 161.175C499.182 167.885 475.94 155.36 475.94 155.36L412.027 126.284L423.201 116.443Z" fill="#A0616A"/>
<path d="M349.455 93.1819C349.455 93.1819 360.628 110.18 359.734 114.206C359.734 114.206 360.628 116.89 359.288 118.679C357.947 120.469 358.394 131.204 358.394 131.204L362.863 137.467L368.673 118.232L371.355 97.6552C371.355 97.6552 365.321 89.3797 366.215 85.3537C367.109 81.3278 349.455 93.1819 349.455 93.1819Z" fill="#A0616A"/>
<path d="M384.763 189.804C384.763 189.804 359.734 256.903 359.734 286.426C359.734 315.95 350.349 349.499 357.5 352.63C364.651 355.761 400.853 356.209 401.747 352.63C402.641 349.052 397.278 203.671 394.596 197.856C391.915 192.041 384.763 189.804 384.763 189.804Z" fill="#2F2E41"/>
<path opacity="0.1" d="M384.763 189.804C384.763 189.804 359.734 256.903 359.734 286.426C359.734 315.95 350.349 349.499 357.5 352.63C364.651 355.761 400.853 356.209 401.747 352.63C402.641 349.052 397.278 203.671 394.596 197.856C391.915 192.041 384.763 189.804 384.763 189.804Z" fill="black"/>
<path d="M355.265 95.8658C364.398 95.8658 371.802 88.4557 371.802 79.3148C371.802 70.174 364.398 62.7638 355.265 62.7638C346.132 62.7638 338.728 70.174 338.728 79.3148C338.728 88.4557 346.132 95.8658 355.265 95.8658Z" fill="#A0616A"/>
<path d="M360.181 129.415L358.985 119.32C358.985 119.32 355.265 124.495 355.265 128.521C355.265 132.546 353.03 146.861 362.416 155.807C371.802 164.754 373.59 166.543 374.037 168.332C374.484 170.122 376.718 170.122 376.718 170.122L389.68 222.459C389.68 222.459 393.702 361.577 399.96 363.366C406.217 365.155 425.435 363.366 426.776 361.129C428.117 358.893 424.542 299.399 424.542 299.399C424.542 299.399 434.374 352.183 437.95 352.183C441.526 352.183 443.76 344.578 442.866 344.131C441.972 343.684 436.609 309.24 434.374 298.504C432.14 287.768 433.034 196.961 433.034 196.961C433.034 196.961 440.185 185.331 415.603 162.517C415.603 162.517 399.96 116.89 399.066 116.89C398.172 116.89 380.741 92.2872 380.741 92.2872C380.741 92.2872 370.908 92.2873 369.12 98.1025C367.333 103.918 360.181 129.415 360.181 129.415Z" fill="#2F2E41"/>
<path d="M375.378 95.8658L380.741 92.2872C380.741 92.2872 403.088 105.707 418.731 106.602C434.374 107.496 433.927 116.443 427.67 122.705C421.413 128.968 396.831 150.439 395.937 145.072C395.043 139.704 375.378 95.8658 375.378 95.8658Z" fill="#2F2E41"/>
<path d="M355.489 73.7233C365.362 73.7233 373.366 68.9167 373.366 62.9875C373.366 57.0583 365.362 52.2517 355.489 52.2517C345.615 52.2517 337.611 57.0583 337.611 62.9875C337.611 68.9167 345.615 73.7233 355.489 73.7233Z" fill="#2F2E41"/>
<path d="M357.276 54.9356C363.2 54.9356 368.003 50.129 368.003 44.1998C368.003 38.2706 363.2 33.4641 357.276 33.4641C351.352 33.4641 346.55 38.2706 346.55 44.1998C346.55 50.129 351.352 54.9356 357.276 54.9356Z" fill="#2F2E41"/>
<path d="M342.974 38.3846C342.974 35.7309 343.956 33.1713 345.731 31.1995C347.505 29.2278 349.946 27.9835 352.583 27.7069C352.212 27.6683 351.839 27.6489 351.466 27.6488C348.621 27.6488 345.893 28.7799 343.881 30.7933C341.869 32.8066 340.739 35.5373 340.739 38.3846C340.739 41.2319 341.869 43.9626 343.881 45.976C345.893 47.9893 348.621 49.1204 351.466 49.1204C351.839 49.1203 352.212 49.1009 352.583 49.0623C349.946 48.7857 347.505 47.5414 345.731 45.5697C343.956 43.5979 342.974 41.0383 342.974 38.3846V38.3846Z" fill="#2F2E41"/>
<path d="M93.6576 132.478C109.938 132.478 123.137 119.269 123.137 102.974C123.137 86.6795 109.938 73.4701 93.6576 73.4701C77.3768 73.4701 64.1786 86.6795 64.1786 102.974C64.1786 119.269 77.3768 132.478 93.6576 132.478Z" fill="#F38D04"/>
<path d="M268.928 390.218H481.682" stroke="#3F3D56" stroke-width="2" stroke-miterlimit="10"/>
<path d="M522.384 94.4893L496.616 120.28L485.785 109.44C485.441 109.096 485.033 108.823 484.584 108.636C484.135 108.45 483.654 108.354 483.167 108.354C482.681 108.354 482.2 108.45 481.751 108.636C481.301 108.823 480.893 109.096 480.549 109.44L480.16 108.857C478.714 110.304 479.104 113.233 480.549 114.68L494.602 128.744C495.132 129.274 495.85 129.572 496.599 129.572C497.348 129.573 498.066 129.275 498.596 128.745L527.617 99.7296C529.064 98.2831 529.589 95.6306 528.143 94.1834C526.697 92.7367 523.83 93.0426 522.384 94.4893Z" fill="#F38D04"/>
<path opacity="0.1" d="M522.384 94.4893L496.616 120.28L485.785 109.44C485.441 109.096 485.033 108.823 484.584 108.636C484.135 108.45 483.654 108.354 483.167 108.354C482.681 108.354 482.2 108.45 481.751 108.636C481.301 108.823 480.893 109.096 480.549 109.44L480.16 108.857C478.714 110.304 479.104 113.233 480.549 114.68L494.602 128.744C495.132 129.274 495.85 129.572 496.599 129.572C497.348 129.573 498.066 129.275 498.596 128.745L527.617 99.7296C529.064 98.2831 529.589 95.6306 528.143 94.1834C526.697 92.7367 523.83 93.0426 522.384 94.4893Z" fill="black"/>
<path d="M522.384 93.3458L496.616 119.136L485.785 108.296C485.441 107.952 485.033 107.679 484.584 107.493C484.135 107.307 483.654 107.211 483.167 107.211C482.681 107.211 482.2 107.307 481.751 107.493C481.301 107.679 480.893 107.952 480.549 108.296V108.296C480.206 108.64 479.933 109.049 479.747 109.498C479.561 109.948 479.465 110.43 479.465 110.916C479.465 111.403 479.561 111.885 479.747 112.334C479.933 112.784 480.206 113.192 480.549 113.537L494.602 127.601C495.132 128.131 495.85 128.429 496.599 128.429C497.348 128.429 498.066 128.132 498.596 127.602L527.617 98.5862C527.961 98.2423 528.234 97.8339 528.421 97.3843C528.607 96.9348 528.703 96.4529 528.703 95.9663C528.703 95.4796 528.607 94.9977 528.421 94.5481C528.235 94.0985 527.962 93.6899 527.619 93.3458V93.3458C526.925 92.6511 525.983 92.2608 525.001 92.2608C524.02 92.2608 523.078 92.6511 522.384 93.3458V93.3458Z" fill="#F38D04"/>
</g>
<defs>
<clipPath id="clip0">
<rect width="529" height="391" fill="white"/>
</clipPath>
</defs>
</svg>
